<svg id="svg" version="1.1" xmlns="http://www.w3.org/2000/svg" xmlns:xlink="http://www.w3.org/1999/xlink" width="400" height="400" viewBox="0, 0, 400,400"><g id="svgg"><path id="path0" d="M169.502 117.500 L 169.400 165.800 118.500 165.902 L 67.600 166.003 67.600 199.002 L 67.600 232.000 118.600 232.000 L 169.600 232.000 169.600 287.200 L 169.600 342.400 202.800 342.400 L 236.000 342.400 236.000 287.200 L 236.000 232.000 288.400 232.000 L 340.800 232.000 340.800 199.001 L 340.800 166.003 288.500 165.901 L 236.200 165.800 236.098 117.500 L 235.997 69.200 202.800 69.200 L 169.603 69.200 169.502 117.500 " stroke="none" fill="#fc0404" fill-rule="evenodd"></path><path id="path1" d="M180.200 0.464 C 177.560 0.656,174.230 0.999,172.800 1.225 C 171.370 1.451,168.760 1.829,167.000 2.065 C 165.240 2.300,163.710 2.617,163.600 2.768 C 163.490 2.918,161.690 3.276,159.600 3.563 C 157.510 3.850,155.616 4.234,155.390 4.417 C 155.165 4.599,154.040 4.873,152.890 5.026 C 151.741 5.178,150.800 5.435,150.800 5.597 C 150.800 5.758,149.450 6.108,147.800 6.374 C 146.150 6.640,144.800 7.002,144.800 7.178 C 144.800 7.353,143.900 7.616,142.800 7.762 C 141.700 7.908,140.800 8.177,140.800 8.359 C 140.800 8.541,139.720 8.920,138.400 9.200 C 137.080 9.480,136.000 9.844,136.000 10.009 C 136.000 10.174,135.230 10.425,134.289 10.566 C 133.349 10.707,132.101 11.070,131.516 11.373 C 130.932 11.677,129.902 12.046,129.227 12.194 C 128.552 12.342,128.000 12.601,128.000 12.768 C 128.000 12.935,127.010 13.310,125.800 13.600 C 124.590 13.890,123.600 14.271,123.600 14.446 C 123.600 14.621,122.970 14.882,122.200 15.026 C 121.430 15.171,120.800 15.420,120.800 15.580 C 120.800 15.741,120.080 16.110,119.200 16.400 C 118.320 16.690,117.600 17.059,117.600 17.220 C 117.600 17.380,116.970 17.629,116.200 17.774 C 115.430 17.918,114.800 18.208,114.800 18.418 C 114.800 18.628,114.587 18.800,114.327 18.800 C 113.744 18.800,106.278 22.414,105.996 22.833 C 105.884 23.000,105.284 23.264,104.664 23.420 C 104.043 23.576,103.445 23.939,103.334 24.227 C 103.224 24.515,102.608 24.866,101.967 25.007 C 101.325 25.148,100.800 25.385,100.800 25.534 C 100.800 25.683,100.215 26.059,99.500 26.370 C 98.785 26.681,98.110 27.040,98.000 27.168 C 97.668 27.553,96.279 28.380,94.900 29.013 C 94.185 29.342,93.600 29.749,93.600 29.918 C 93.600 30.086,93.105 30.446,92.500 30.717 C 90.993 31.390,89.542 32.259,89.246 32.664 C 89.111 32.850,88.529 33.243,87.954 33.539 C 87.379 33.835,86.479 34.465,85.954 34.938 C 85.429 35.412,84.469 36.070,83.820 36.400 C 83.171 36.730,82.091 37.492,81.420 38.093 C 79.223 40.062,78.803 40.400,78.558 40.400 C 78.425 40.400,77.750 40.858,77.058 41.417 C 76.366 41.976,75.393 42.741,74.897 43.117 C 73.601 44.097,70.898 46.394,69.322 47.856 C 68.577 48.547,67.498 49.447,66.924 49.856 C 65.566 50.825,50.825 65.566,49.856 66.924 C 49.447 67.498,48.547 68.577,47.856 69.322 C 46.394 70.898,44.097 73.601,43.117 74.897 C 42.741 75.393,41.976 76.366,41.417 77.058 C 40.858 77.750,40.400 78.425,40.400 78.558 C 40.400 78.803,40.062 79.223,38.093 81.420 C 37.492 82.091,36.730 83.171,36.400 83.820 C 36.070 84.469,35.412 85.429,34.938 85.954 C 34.465 86.479,33.835 87.379,33.539 87.954 C 33.243 88.529,32.850 89.111,32.664 89.246 C 32.259 89.542,31.390 90.993,30.717 92.500 C 30.446 93.105,30.086 93.600,29.918 93.600 C 29.749 93.600,29.342 94.185,29.013 94.900 C 28.380 96.279,27.553 97.668,27.168 98.000 C 27.040 98.110,26.681 98.785,26.370 99.500 C 26.059 100.215,25.683 100.800,25.534 100.800 C 25.385 100.800,25.148 101.325,25.007 101.967 C 24.866 102.608,24.515 103.224,24.227 103.334 C 23.939 103.445,23.576 104.043,23.420 104.664 C 23.264 105.284,23.000 105.884,22.833 105.996 C 22.414 106.278,18.800 113.744,18.800 114.327 C 18.800 114.587,18.628 114.800,18.418 114.800 C 18.208 114.800,17.918 115.430,17.774 116.200 C 17.629 116.970,17.380 117.600,17.220 117.600 C 17.059 117.600,16.690 118.320,16.400 119.200 C 16.110 120.080,15.741 120.800,15.580 120.800 C 15.420 120.800,15.171 121.430,15.026 122.200 C 14.882 122.970,14.621 123.600,14.446 123.600 C 14.271 123.600,13.890 124.590,13.600 125.800 C 13.310 127.010,12.935 128.000,12.768 128.000 C 12.601 128.000,12.342 128.552,12.194 129.227 C 12.046 129.902,11.677 130.932,11.373 131.516 C 11.070 132.101,10.707 133.349,10.566 134.289 C 10.425 135.230,10.174 136.000,10.009 136.000 C 9.844 136.000,9.480 137.080,9.200 138.400 C 8.920 139.720,8.541 140.800,8.359 140.800 C 8.177 140.800,7.908 141.700,7.762 142.800 C 7.616 143.900,7.353 144.800,7.178 144.800 C 7.002 144.800,6.640 146.150,6.374 147.800 C 6.108 149.450,5.758 150.800,5.597 150.800 C 5.435 150.800,5.178 151.741,5.026 152.890 C 4.873 154.040,4.599 155.165,4.417 155.390 C 4.234 155.616,3.850 157.510,3.563 159.600 C 3.276 161.690,2.918 163.490,2.768 163.600 C 2.617 163.710,2.301 165.240,2.066 167.000 C 1.831 168.760,1.464 171.280,1.252 172.600 C -0.429 183.033,-0.429 216.967,1.252 227.400 C 1.464 228.720,1.831 231.240,2.066 233.000 C 2.301 234.760,2.617 236.290,2.768 236.400 C 2.918 236.510,3.276 238.310,3.563 240.400 C 3.850 242.490,4.234 244.384,4.417 244.610 C 4.599 244.835,4.873 245.960,5.026 247.110 C 5.178 248.259,5.435 249.200,5.597 249.200 C 5.758 249.200,6.108 250.550,6.374 252.200 C 6.640 253.850,7.002 255.200,7.178 255.200 C 7.353 255.200,7.616 256.100,7.762 257.200 C 7.908 258.300,8.177 259.200,8.359 259.200 C 8.541 259.200,8.920 260.280,9.200 261.600 C 9.480 262.920,9.844 264.000,10.009 264.000 C 10.174 264.000,10.425 264.770,10.566 265.711 C 10.707 266.651,11.070 267.899,11.373 268.484 C 11.677 269.068,12.046 270.098,12.194 270.773 C 12.342 271.448,12.601 272.000,12.768 272.000 C 12.935 272.000,13.310 272.990,13.600 274.200 C 13.890 275.410,14.271 276.400,14.446 276.400 C 14.621 276.400,14.882 277.030,15.026 277.800 C 15.171 278.570,15.420 279.200,15.580 279.200 C 15.741 279.200,16.110 279.920,16.400 280.800 C 16.690 281.680,17.059 282.400,17.220 282.400 C 17.380 282.400,17.629 283.030,17.774 283.800 C 17.918 284.570,18.208 285.200,18.418 285.200 C 18.628 285.200,18.800 285.413,18.800 285.673 C 18.800 286.256,22.414 293.722,22.833 294.004 C 23.000 294.116,23.264 294.716,23.420 295.336 C 23.576 295.957,23.939 296.555,24.227 296.666 C 24.515 296.776,24.866 297.392,25.007 298.033 C 25.148 298.675,25.385 299.200,25.534 299.200 C 25.683 299.200,26.059 299.785,26.370 300.500 C 26.681 301.215,27.040 301.890,27.168 302.000 C 27.553 302.332,28.380 303.721,29.013 305.100 C 29.342 305.815,29.749 306.400,29.918 306.400 C 30.086 306.400,30.446 306.895,30.717 307.500 C 31.390 309.007,32.259 310.458,32.664 310.754 C 32.850 310.889,33.243 311.471,33.539 312.046 C 33.835 312.621,34.465 313.521,34.938 314.046 C 35.412 314.571,36.070 315.531,36.400 316.180 C 36.730 316.829,37.492 317.909,38.093 318.580 C 40.062 320.777,40.400 321.197,40.400 321.442 C 40.400 321.575,40.858 322.250,41.417 322.942 C 41.976 323.634,42.741 324.607,43.117 325.103 C 44.097 326.399,46.394 329.102,47.856 330.678 C 48.547 331.423,49.447 332.502,49.856 333.076 C 50.825 334.434,65.566 349.175,66.924 350.144 C 67.498 350.553,68.577 351.453,69.322 352.144 C 70.898 353.606,73.601 355.903,74.897 356.883 C 75.393 357.259,76.366 358.024,77.058 358.583 C 77.750 359.142,78.425 359.600,78.558 359.600 C 78.803 359.600,79.223 359.938,81.420 361.907 C 82.091 362.508,83.171 363.270,83.820 363.600 C 84.469 363.930,85.429 364.588,85.954 365.062 C 86.479 365.535,87.379 366.165,87.954 366.461 C 88.529 366.757,89.111 367.150,89.246 367.336 C 89.542 367.741,90.993 368.610,92.500 369.283 C 93.105 369.554,93.600 369.914,93.600 370.082 C 93.600 370.251,94.185 370.658,94.900 370.987 C 96.279 371.620,97.668 372.447,98.000 372.832 C 98.110 372.960,98.785 373.319,99.500 373.630 C 100.215 373.941,100.800 374.317,100.800 374.466 C 100.800 374.615,101.325 374.852,101.967 374.993 C 102.608 375.134,103.224 375.485,103.334 375.773 C 103.445 376.061,104.043 376.424,104.664 376.580 C 105.284 376.736,105.884 377.000,105.996 377.167 C 106.278 377.586,113.744 381.200,114.327 381.200 C 114.587 381.200,114.800 381.372,114.800 381.582 C 114.800 381.792,115.430 382.082,116.200 382.226 C 116.970 382.371,117.600 382.620,117.600 382.780 C 117.600 382.941,118.320 383.310,119.200 383.600 C 120.080 383.890,120.800 384.259,120.800 384.420 C 120.800 384.580,121.430 384.829,122.200 384.974 C 122.970 385.118,123.600 385.379,123.600 385.554 C 123.600 385.729,124.590 386.110,125.800 386.400 C 127.010 386.690,128.000 387.065,128.000 387.232 C 128.000 387.399,128.552 387.658,129.227 387.806 C 129.902 387.954,130.932 388.323,131.516 388.627 C 132.101 388.930,133.349 389.293,134.289 389.434 C 135.230 389.575,136.000 389.826,136.000 389.991 C 136.000 390.156,137.080 390.520,138.400 390.800 C 139.720 391.080,140.800 391.459,140.800 391.641 C 140.800 391.823,141.700 392.092,142.800 392.238 C 143.900 392.384,144.800 392.647,144.800 392.822 C 144.800 392.998,146.150 393.360,147.800 393.626 C 149.450 393.892,150.800 394.242,150.800 394.403 C 150.800 394.565,151.741 394.822,152.890 394.974 C 154.040 395.127,155.165 395.401,155.390 395.583 C 155.616 395.766,157.510 396.150,159.600 396.437 C 161.690 396.724,163.490 397.082,163.600 397.232 C 163.710 397.383,165.240 397.699,167.000 397.934 C 168.760 398.169,171.280 398.536,172.600 398.748 C 183.033 400.429,216.967 400.429,227.400 398.748 C 228.720 398.536,231.240 398.169,233.000 397.934 C 234.760 397.699,236.290 397.383,236.400 397.232 C 236.510 397.082,238.310 396.724,240.400 396.437 C 242.490 396.150,244.384 395.766,244.610 395.583 C 244.835 395.401,245.960 395.127,247.110 394.974 C 248.259 394.822,249.200 394.565,249.200 394.403 C 249.200 394.242,250.550 393.892,252.200 393.626 C 253.850 393.360,255.200 392.998,255.200 392.822 C 255.200 392.647,256.100 392.384,257.200 392.238 C 258.300 392.092,259.200 391.823,259.200 391.641 C 259.200 391.459,260.280 391.080,261.600 390.800 C 262.920 390.520,264.000 390.156,264.000 389.991 C 264.000 389.826,264.770 389.575,265.711 389.434 C 266.651 389.293,267.899 388.930,268.484 388.627 C 269.068 388.323,270.098 387.954,270.773 387.806 C 271.448 387.658,272.000 387.399,272.000 387.232 C 272.000 387.065,272.990 386.690,274.200 386.400 C 275.410 386.110,276.400 385.729,276.400 385.554 C 276.400 385.379,277.030 385.118,277.800 384.974 C 278.570 384.829,279.200 384.580,279.200 384.420 C 279.200 384.259,279.920 383.890,280.800 383.600 C 281.680 383.310,282.400 382.941,282.400 382.780 C 282.400 382.620,283.030 382.371,283.800 382.226 C 284.570 382.082,285.200 381.792,285.200 381.582 C 285.200 381.372,285.413 381.200,285.673 381.200 C 286.256 381.200,293.722 377.586,294.004 377.167 C 294.116 377.000,294.716 376.736,295.336 376.580 C 295.957 376.424,296.555 376.061,296.666 375.773 C 296.776 375.485,297.392 375.134,298.033 374.993 C 298.675 374.852,299.200 374.615,299.200 374.466 C 299.200 374.317,299.785 373.941,300.500 373.630 C 301.215 373.319,301.890 372.960,302.000 372.832 C 302.332 372.447,303.721 371.620,305.100 370.987 C 305.815 370.658,306.400 370.251,306.400 370.082 C 306.400 369.914,306.895 369.554,307.500 369.283 C 309.007 368.610,310.458 367.741,310.754 367.336 C 310.889 367.150,311.471 366.757,312.046 366.461 C 312.621 366.165,313.521 365.535,314.046 365.062 C 314.571 364.588,315.531 363.930,316.180 363.600 C 316.829 363.270,317.909 362.508,318.580 361.907 C 320.777 359.938,321.197 359.600,321.442 359.600 C 321.575 359.600,322.250 359.142,322.942 358.583 C 323.634 358.024,324.607 357.259,325.103 356.883 C 326.399 355.903,329.102 353.606,330.678 352.144 C 331.423 351.453,332.502 350.553,333.076 350.144 C 334.434 349.175,349.175 334.434,350.144 333.076 C 350.553 332.502,351.453 331.423,352.144 330.678 C 353.606 329.102,355.903 326.399,356.883 325.103 C 357.259 324.607,358.024 323.634,358.583 322.942 C 359.142 322.250,359.600 321.575,359.600 321.442 C 359.600 321.197,359.938 320.777,361.907 318.580 C 362.508 317.909,363.270 316.829,363.600 316.180 C 363.930 315.531,364.588 314.571,365.062 314.046 C 365.535 313.521,366.165 312.621,366.461 312.046 C 366.757 311.471,367.150 310.889,367.336 310.754 C 367.741 310.458,368.610 309.007,369.283 307.500 C 369.554 306.895,369.914 306.400,370.082 306.400 C 370.251 306.400,370.658 305.815,370.987 305.100 C 371.620 303.721,372.447 302.332,372.832 302.000 C 372.960 301.890,373.319 301.215,373.630 300.500 C 373.941 299.785,374.317 299.200,374.466 299.200 C 374.615 299.200,374.852 298.675,374.993 298.033 C 375.134 297.392,375.485 296.776,375.773 296.666 C 376.061 296.555,376.424 295.957,376.580 295.336 C 376.736 294.716,377.000 294.116,377.167 294.004 C 377.586 293.722,381.200 286.256,381.200 285.673 C 381.200 285.413,381.372 285.200,381.582 285.200 C 381.792 285.200,382.082 284.570,382.226 283.800 C 382.371 283.030,382.620 282.400,382.780 282.400 C 382.941 282.400,383.310 281.680,383.600 280.800 C 383.890 279.920,384.259 279.200,384.420 279.200 C 384.580 279.200,384.829 278.570,384.974 277.800 C 385.118 277.030,385.379 276.400,385.554 276.400 C 385.729 276.400,386.110 275.410,386.400 274.200 C 386.690 272.990,387.065 272.000,387.232 272.000 C 387.399 272.000,387.658 271.448,387.806 270.773 C 387.954 270.098,388.323 269.068,388.627 268.484 C 388.930 267.899,389.293 266.651,389.434 265.711 C 389.575 264.770,389.826 264.000,389.991 264.000 C 390.156 264.000,390.520 262.920,390.800 261.600 C 391.080 260.280,391.459 259.200,391.641 259.200 C 391.823 259.200,392.092 258.300,392.238 257.200 C 392.384 256.100,392.647 255.200,392.822 255.200 C 392.998 255.200,393.360 253.850,393.626 252.200 C 393.892 250.550,394.242 249.200,394.403 249.200 C 394.565 249.200,394.822 248.259,394.974 247.110 C 395.127 245.960,395.401 244.835,395.583 244.610 C 395.766 244.384,396.150 242.490,396.437 240.400 C 396.724 238.310,397.082 236.510,397.232 236.400 C 397.383 236.290,397.699 234.760,397.934 233.000 C 398.169 231.240,398.536 228.720,398.748 227.400 C 400.429 216.967,400.429 183.033,398.748 172.600 C 398.536 171.280,398.169 168.760,397.934 167.000 C 397.699 165.240,397.383 163.710,397.232 163.600 C 397.082 163.490,396.724 161.690,396.437 159.600 C 396.150 157.510,395.766 155.616,395.583 155.390 C 395.401 155.165,395.127 154.040,394.974 152.890 C 394.822 151.741,394.565 150.800,394.403 150.800 C 394.242 150.800,393.892 149.450,393.626 147.800 C 393.360 146.150,392.998 144.800,392.822 144.800 C 392.647 144.800,392.384 143.900,392.238 142.800 C 392.092 141.700,391.823 140.800,391.641 140.800 C 391.459 140.800,391.080 139.720,390.800 138.400 C 390.520 137.080,390.156 136.000,389.991 136.000 C 389.826 136.000,389.575 135.230,389.434 134.289 C 389.293 133.349,388.930 132.101,388.627 131.516 C 388.323 130.932,387.954 129.902,387.806 129.227 C 387.658 128.552,387.399 128.000,387.232 128.000 C 387.065 128.000,386.690 127.010,386.400 125.800 C 386.110 124.590,385.729 123.600,385.554 123.600 C 385.379 123.600,385.118 122.970,384.974 122.200 C 384.829 121.430,384.580 120.800,384.420 120.800 C 384.259 120.800,383.890 120.080,383.600 119.200 C 383.310 118.320,382.941 117.600,382.780 117.600 C 382.620 117.600,382.371 116.970,382.226 116.200 C 382.082 115.430,381.792 114.800,381.582 114.800 C 381.372 114.800,381.200 114.587,381.200 114.327 C 381.200 113.744,377.586 106.278,377.167 105.996 C 377.000 105.884,376.736 105.284,376.580 104.664 C 376.424 104.043,376.061 103.445,375.773 103.334 C 375.485 103.224,375.134 102.608,374.993 101.967 C 374.852 101.325,374.615 100.800,374.466 100.800 C 374.317 100.800,373.941 100.215,373.630 99.500 C 373.319 98.785,372.960 98.110,372.832 98.000 C 372.447 97.668,371.620 96.279,370.987 94.900 C 370.658 94.185,370.251 93.600,370.082 93.600 C 369.914 93.600,369.554 93.105,369.283 92.500 C 368.610 90.993,367.741 89.542,367.336 89.246 C 367.150 89.111,366.757 88.529,366.461 87.954 C 366.165 87.379,365.535 86.479,365.062 85.954 C 364.588 85.429,363.930 84.469,363.600 83.820 C 363.270 83.171,362.508 82.091,361.907 81.420 C 359.938 79.223,359.600 78.803,359.600 78.558 C 359.600 78.425,359.142 77.750,358.583 77.058 C 358.024 76.366,357.259 75.393,356.883 74.897 C 355.903 73.601,353.606 70.898,352.144 69.322 C 351.453 68.577,350.553 67.498,350.144 66.924 C 349.175 65.566,334.434 50.825,333.076 49.856 C 332.502 49.447,331.423 48.547,330.678 47.856 C 329.102 46.394,326.399 44.097,325.103 43.117 C 324.607 42.741,323.634 41.976,322.942 41.417 C 322.250 40.858,321.575 40.400,321.442 40.400 C 321.197 40.400,320.777 40.062,318.580 38.093 C 317.909 37.492,316.829 36.730,316.180 36.400 C 315.531 36.070,314.571 35.412,314.046 34.938 C 313.521 34.465,312.621 33.835,312.046 33.539 C 311.471 33.243,310.889 32.850,310.754 32.664 C 310.458 32.259,309.007 31.390,307.500 30.717 C 306.895 30.446,306.400 30.086,306.400 29.918 C 306.400 29.749,305.815 29.342,305.100 29.013 C 303.721 28.380,302.332 27.553,302.000 27.168 C 301.890 27.040,301.215 26.681,300.500 26.370 C 299.785 26.059,299.200 25.683,299.200 25.534 C 299.200 25.385,298.675 25.148,298.033 25.007 C 297.392 24.866,296.776 24.515,296.666 24.227 C 296.555 23.939,295.957 23.576,295.336 23.420 C 294.716 23.264,294.116 23.000,294.004 22.833 C 293.722 22.414,286.256 18.800,285.673 18.800 C 285.413 18.800,285.200 18.628,285.200 18.418 C 285.200 18.208,284.570 17.918,283.800 17.774 C 283.030 17.629,282.400 17.380,282.400 17.220 C 282.400 17.059,281.680 16.690,280.800 16.400 C 279.920 16.110,279.200 15.741,279.200 15.580 C 279.200 15.420,278.570 15.171,277.800 15.026 C 277.030 14.882,276.400 14.621,276.400 14.446 C 276.400 14.271,275.410 13.890,274.200 13.600 C 272.990 13.310,272.000 12.935,272.000 12.768 C 272.000 12.601,271.448 12.342,270.773 12.194 C 270.098 12.046,269.068 11.677,268.484 11.373 C 267.899 11.070,266.651 10.707,265.711 10.566 C 264.770 10.425,264.000 10.174,264.000 10.009 C 264.000 9.844,262.920 9.480,261.600 9.200 C 260.280 8.920,259.200 8.541,259.200 8.359 C 259.200 8.177,258.300 7.908,257.200 7.762 C 256.100 7.616,255.200 7.353,255.200 7.178 C 255.200 7.002,253.850 6.640,252.200 6.374 C 250.550 6.108,249.200 5.758,249.200 5.597 C 249.200 5.435,248.259 5.178,247.110 5.026 C 245.960 4.873,244.835 4.599,244.610 4.417 C 244.384 4.234,242.490 3.850,240.400 3.563 C 238.310 3.276,236.510 2.918,236.400 2.768 C 236.290 2.617,234.760 2.301,233.000 2.066 C 231.240 1.831,228.720 1.464,227.400 1.252 C 220.033 0.065,192.066 -0.402,180.200 0.464 M236.167 68.243 C 236.739 68.462,236.800 73.116,236.800 116.841 L 236.800 165.197 289.100 165.299 L 341.400 165.400 341.400 199.000 L 341.400 232.600 289.100 232.701 L 236.800 232.803 236.800 287.794 L 236.800 342.785 235.900 343.002 C 235.405 343.122,220.240 343.171,202.200 343.110 L 169.400 343.000 169.299 287.902 L 169.197 232.803 118.099 232.702 L 67.000 232.600 67.000 199.000 L 67.000 165.400 118.100 165.298 L 169.200 165.197 169.200 116.865 C 169.200 90.283,169.320 68.413,169.467 68.267 C 169.800 67.934,235.300 67.910,236.167 68.243 " stroke="none" fill="#fcfcfc" fill-rule="evenodd"></path><path id="path2" d="M169.462 68.300 C 169.360 68.465,184.334 68.600,202.738 68.600 L 236.200 68.600 236.400 117.000 L 236.600 165.400 288.905 165.501 L 341.209 165.603 341.105 199.182 C 341.047 217.650,341.136 232.624,341.302 232.458 C 341.469 232.291,341.559 217.135,341.502 198.778 L 341.400 165.400 289.100 165.299 L 236.800 165.197 236.800 116.841 C 236.800 73.116,236.739 68.462,236.167 68.243 C 235.244 67.889,169.681 67.945,169.462 68.300 M67.067 165.467 C 66.696 165.837,66.729 232.309,67.100 232.538 C 67.265 232.640,67.353 217.622,67.295 199.163 L 67.191 165.603 118.295 165.500 L 169.400 165.397 118.367 165.298 C 90.298 165.244,67.213 165.320,67.067 165.467 M236.594 287.800 C 236.594 318.160,236.642 330.639,236.700 315.531 C 236.758 300.423,236.758 275.583,236.700 260.331 C 236.642 245.079,236.594 257.440,236.594 287.800 M186.100 343.100 C 195.285 343.160,210.315 343.160,219.500 343.100 C 228.685 343.040,221.170 342.991,202.800 342.991 C 184.430 342.991,176.915 343.040,186.100 343.100 " stroke="none" fill="#fce4e4" fill-rule="evenodd"></path><path id="path3" d="M186.100 69.100 C 195.285 69.160,210.315 69.160,219.500 69.100 C 228.685 69.040,221.170 68.991,202.800 68.991 C 184.430 68.991,176.915 69.040,186.100 69.100 M67.298 198.900 L 67.400 232.200 118.400 232.202 L 169.400 232.205 118.500 232.101 L 67.600 231.997 67.600 199.000 L 67.600 166.003 118.500 165.900 L 169.400 165.797 118.298 165.698 L 67.195 165.600 67.298 198.900 M288.500 165.900 L 340.800 166.003 340.800 199.001 L 340.800 232.000 288.400 232.000 C 259.580 232.000,236.000 232.135,236.000 232.300 C 236.000 232.465,259.625 232.510,288.500 232.400 L 341.000 232.200 341.102 198.900 L 341.205 165.600 288.702 165.699 L 236.200 165.797 288.500 165.900 M186.100 342.700 C 195.285 342.760,210.315 342.760,219.500 342.700 C 228.685 342.640,221.170 342.591,202.800 342.591 C 184.430 342.591,176.915 342.640,186.100 342.700 " stroke="none" fill="#fc1c1c" fill-rule="evenodd"></path><path id="path4" d="M169.385 68.898 C 169.280 69.174,169.241 91.090,169.299 117.600 L 169.403 165.800 169.502 117.300 L 169.600 68.800 202.800 68.800 L 236.000 68.800 236.000 117.200 C 236.000 143.820,236.135 165.600,236.300 165.600 C 236.465 165.600,236.510 143.775,236.400 117.100 L 236.200 68.600 202.888 68.498 C 176.450 68.417,169.537 68.499,169.385 68.898 M67.462 232.500 C 67.564 232.665,90.496 232.800,118.422 232.800 L 169.197 232.800 169.300 287.900 L 169.403 343.000 169.501 287.703 L 169.600 232.406 118.438 232.303 C 90.299 232.246,67.360 232.335,67.462 232.500 M288.600 232.398 L 236.200 232.600 236.198 287.600 L 236.196 342.600 236.299 287.700 L 236.403 232.800 288.578 232.800 C 322.930 232.800,340.837 232.663,341.000 232.400 C 341.136 232.180,341.192 232.044,341.124 232.098 C 341.056 232.152,317.420 232.287,288.600 232.398 " stroke="none" fill="#fc9494" fill-rule="evenodd"></path></g></svg>